<?xml version="1.0" encoding="utf-8"?>
<!-- Generator: Adobe Illustrator 27.7.0, SVG Export Plug-In . SVG Version: 6.00 Build 0)  -->
<svg version="1.1" id="Layer_1" xmlns="http://www.w3.org/2000/svg" xmlns:xlink="http://www.w3.org/1999/xlink" x="0px" y="0px"
	 viewBox="0 0 16 28" style="enable-background:new 0 0 16 28;" xml:space="preserve">
<style type="text/css">
	.st0{fill:#FFFFFF;}
</style>
<rect x="10.2" y="14" class="st0" width="2" height="3.5"/>
<rect x="6.1" y="14" class="st0" width="2" height="3.5"/>
<rect x="14.2" y="7" class="st0" width="1.5" height="3.5"/>
<rect x="10.2" y="7" class="st0" width="2" height="3.5"/>
<rect x="8.1" y="10.5" class="st0" width="2" height="3.5"/>
<rect x="14.2" y="14" class="st0" width="1.5" height="3.5"/>
<rect x="6.1" y="7" class="st0" width="2" height="3.5"/>
<rect x="12.2" y="17.5" class="st0" width="2" height="3.5"/>
<rect x="8.1" y="17.5" class="st0" width="2" height="3.5"/>
<rect x="12.2" y="10.5" class="st0" width="2" height="3.5"/>
<rect x="4.1" y="17.5" class="st0" width="2" height="3.5"/>
<rect x="4.1" y="10.5" class="st0" width="2" height="3.5"/>
<rect x="12.2" y="3.5" class="st0" width="2" height="3.5"/>
<rect x="2" y="21" class="st0" width="2" height="3.5"/>
<rect x="6.1" y="21" class="st0" width="2" height="3.5"/>
<rect x="2" y="14" class="st0" width="2" height="3.5"/>
<rect x="10.2" y="21" class="st0" width="2" height="3.5"/>
<rect x="2" y="7" class="st0" width="2" height="3.5"/>
<rect x="4.1" y="3.5" class="st0" width="2" height="3.5"/>
<rect x="8.1" y="3.5" class="st0" width="2" height="3.5"/>
<rect x="14.2" y="21" class="st0" width="1.5" height="3.5"/>
<rect x="4.1" y="24.5" class="st0" width="2" height="3.5"/>
<rect y="24.5" class="st0" width="2" height="3.5"/>
<rect y="17.5" class="st0" width="2" height="3.5"/>
<rect y="10.5" class="st0" width="2" height="3.5"/>
<rect y="3.5" class="st0" width="2" height="3.5"/>
<rect x="2" class="st0" width="2" height="3.5"/>
<rect x="6.1" class="st0" width="2" height="3.5"/>
<rect x="10.2" class="st0" width="2" height="3.5"/>
<rect x="14.2" class="st0" width="1.5" height="3.5"/>
<rect x="12.2" y="24.5" class="st0" width="2" height="3.5"/>
<rect x="8.1" y="24.5" class="st0" width="2" height="3.5"/>
</svg>
