<?xml version="1.0" encoding="utf-8"?>
<!-- Generator: Adobe Illustrator 27.7.0, SVG Export Plug-In . SVG Version: 6.00 Build 0)  -->
<svg version="1.1" id="Layer_1" xmlns="http://www.w3.org/2000/svg" xmlns:xlink="http://www.w3.org/1999/xlink" x="0px" y="0px"
	 viewBox="0 0 16 28" style="enable-background:new 0 0 16 28;" xml:space="preserve">
<style type="text/css">
	.st0{fill:#FFFFFF;}
</style>
<path class="st0" d="M10.7,0v3.5H8.5V0H2.1v3.5H0v6.3h2.1v3.5H0v6.3h2.1v3.5H0V28h4.3v-3.5h2.1V28h6.4v-3.5h2.1V28H16V0H10.7z
	 M6.4,18.2H4.3v-3.5h2.1V18.2z M6.4,8.4H4.3V4.9h2.1V8.4z M10.7,23.1H8.5v-3.5h2.1V23.1z M10.7,13.3H8.5V9.8h2.1V13.3z M14.9,18.2
	h-2.1v-3.5h2.1V18.2z M14.9,8.4h-2.1V4.9h2.1V8.4z"/>
</svg>
