<?xml version="1.0" encoding="utf-8"?>
<!-- Generator: Adobe Illustrator 27.7.0, SVG Export Plug-In . SVG Version: 6.00 Build 0)  -->
<svg version="1.1" id="Layer_1" xmlns="http://www.w3.org/2000/svg" xmlns:xlink="http://www.w3.org/1999/xlink" x="0px" y="0px"
	 viewBox="0 0 128 28" style="enable-background:new 0 0 128 28;" xml:space="preserve">
<style type="text/css">
	.st0{fill:#0000FF;}
</style>
<path class="st0" d="M121.8,0v3.5h-2.1V0h-6.2v3.5h-1.5V0h-6.2v3.5h-2.1V0h-6.2v3.5h-1.5V0H90v3.5h-2.1V0h-6.2v3.5h-1.5V0H74v3.5H72
	V0h-6.2v3.5h-1.5V0H48.3h-0.5H32.4h-0.5H16.5h-0.5H0v28h15.9h0.5h15.4h0.5h15.4h0.5h15.4h0.5h3.6v-3.5h2.1V28h6.2v-3.5h2.1V28h1.5
	h0.5h3.6v-3.5h2.1V28H92v-3.5h2.1V28h1.5h0.5h3.6v-3.5h2.1V28h6.2v-3.5h2.1V28h1.5h0.5h3.6v-3.5h2.1V28h6.2v-3.5h2.1V28h2.1V0H121.8
	z M65.8,23.1h-1.5v-3.5h1.5V23.1z M65.8,13.3h-1.5V9.8h1.5V13.3z M69.9,18.2h-2.1v-3.5h2.1V18.2z M69.9,8.4h-2.1V4.9h2.1V8.4z
	 M74,23.1H72v-3.5H74V23.1z M74,13.3H72V9.8H74V13.3z M78.1,18.2h-2.1v-3.5h2.1V18.2z M78.1,8.4h-2.1V4.9h2.1V8.4z M81.7,23.1h-1.5
	v-3.5h1.5V23.1z M81.7,13.3h-1.5V9.8h1.5V13.3z M85.8,18.2h-2.1v-3.5h2.1V18.2z M85.8,8.4h-2.1V4.9h2.1V8.4z M90,23.1h-2.1v-3.5H90
	V23.1z M90,13.3h-2.1V9.8H90V13.3z M94.1,18.2H92v-3.5h2.1V18.2z M94.1,8.4H92V4.9h2.1V8.4z M97.7,23.1h-1.5v-3.5h1.5V23.1z
	 M97.7,13.3h-1.5V9.8h1.5V13.3z M101.8,18.2h-2.1v-3.5h2.1V18.2z M101.8,8.4h-2.1V4.9h2.1V8.4z M105.9,23.1h-2.1v-3.5h2.1V23.1z
	 M105.9,13.3h-2.1V9.8h2.1V13.3z M110,18.2h-2.1v-3.5h2.1V18.2z M110,8.4h-2.1V4.9h2.1V8.4z M113.6,23.1h-1.5v-3.5h1.5V23.1z
	 M113.6,13.3h-1.5V9.8h1.5V13.3z M117.7,18.2h-2.1v-3.5h2.1V18.2z M117.7,8.4h-2.1V4.9h2.1V8.4z M121.8,23.1h-2.1v-3.5h2.1V23.1z
	 M121.8,13.3h-2.1V9.8h2.1V13.3z M125.9,18.2h-2.1v-3.5h2.1V18.2z M125.9,8.4h-2.1V4.9h2.1V8.4z"/>
</svg>
