<?xml version="1.0" encoding="utf-8"?>
<!-- Generator: Adobe Illustrator 27.7.0, SVG Export Plug-In . SVG Version: 6.00 Build 0)  -->
<svg version="1.1" id="Layer_1" xmlns="http://www.w3.org/2000/svg" xmlns:xlink="http://www.w3.org/1999/xlink" x="0px" y="0px"
	 viewBox="0 0 16 28" style="enable-background:new 0 0 16 28;" xml:space="preserve">
<style type="text/css">
	.st0{fill:#0000FF;}
</style>
<path class="st0" d="M0,28v-4.9h2v-3.5H0v-6.3h2V9.8H0V3.5h2V0h6v3.5h2V0h6v28h-2v-3.5h-2V28H6v-3.5H4V28H0z M4,8.4h2V4.9H4V8.4z
	 M4,18.2h2v-3.5H4V18.2z M8,13.3h2V9.8H8V13.3z M8,23.1h2v-3.5H8V23.1z M12,8.4h2V4.9h-2V8.4z M12,18.2h2v-3.5h-2V18.2z"/>
</svg>
