<?xml version="1.0" encoding="utf-8"?>
<!-- Generator: Adobe Illustrator 27.7.0, SVG Export Plug-In . SVG Version: 6.00 Build 0)  -->
<svg version="1.1" id="Layer_1" xmlns="http://www.w3.org/2000/svg" xmlns:xlink="http://www.w3.org/1999/xlink" x="0px" y="0px"
	 viewBox="0 0 200 200" style="enable-background:new 0 0 200 200;" xml:space="preserve">
<style type="text/css">
	.st0{fill:#FFFF00;}
</style>
<g>
	<g transform="translate(0.000000,200.000000) scale(0.033333,-0.033333)">
		<path class="st0" d="M0,5160v-840h840h840v840v840H840H0V5160z M1440,5160v-600H840H240v600v600h600h600V5160z"/>
		<path class="st0" d="M480,5160v-360h360h360v360v360H840H480V5160z"/>
		<path class="st0" d="M2160,5880v-120h-120h-120v-120v-120h120h120v-120v-120h-120h-120v-120v-120h240h240v-360v-360h120h120v360
			v360h120h120v-120v-120h120h120v-120v-120h-120h-120v-360v-360h240h240v-120v-120h-360h-360v-120v-120h-120h-120v240v240h120h120
			v120v120h-600h-600v-120v-120h240h240v-120v-120h120h120v-120v-120h-240h-240v120v120h-120h-120v-120v-120h-240H960v120v120h120
			h120v240v240H600H0v-240v-240h360h360v-360v-360h120h120v120v120h120h120v-240v-240H840H480v120v120H360H240v240v240H120H0v-720
			v-720h120h120v360v360h120h120v-360v-360h120h120v120v120h120h120v-120v-120h120h120v120v120h120h120v-120v-120h120h120v120v120
			h-120h-120v120v120h120h120v120v120h120h120v-120v-120h240h240v120v120h120h120v120v120h120h120v-120v-120h240h240v-120v-120h120
			h120v-120v-120h-240h-240v120v120h-120h-120v-240v-240h480h480v-360v-360h-120h-120V960V720h-120h-120v120v120h-240h-240v240v240
			h120h120v120v120h-240h-240v240v240h-240h-240v-120v-120h-120h-120v-240v-240h120h120v120v120h240h240v-120v-120h-120h-120v-240
			V960h240h240V840V720h120h120V600V480h-120h-120V240V0h120h120v120v120h120h120V120V0h120h120v120v120h-120h-120v120v120h240h240
			V360V240h120h120V120V0h960h960v600v600h-360h-360v120v120h360h360v120v120h-360h-360v120v120h120h120v120v120h-120h-120v-120
			v-120h-120h-120v240v240h120h120v240v240h120h120v-240v-240h120h120v-120v-120h120h120v240v240h-120h-120v120v120h120h120v360v360
			h-120h-120v240v240h-120h-120v-360v-360h120h120v-120v-120h-240h-240v-120v-120h-120h-120v120v120h-360h-360v120v120h480h480v120
			v120h-240h-240v240v240h-120h-120v-240v-240h-120h-120v-120v-120h-120h-120v-240v-240h-120h-120v-120v-120h-240h-240v120v120h120
			h120v120v120h120h120v240v240h120h120v120v120h120h120v120v120h-120h-120v360v360h-360h-360v120v120h120h120v240v240h120h120v-120
			v-120h120h120v120v120h-120h-120v120v120h120h120v120v120h-120h-120v-120v-120h-120h-120v120v120h-120h-120v-120v-120h-360h-360
			v-120v-120h-120h-120v240v240h-120h-120V5880z M3360,5400v-120h-120h-120v-120v-120h-120h-120v240v240h240h240V5400z M2640,5160
			v-120h-120h-120v120v120h120h120V5160z M3360,4320v-240h-120h-120v240v240h120h120V4320z M3840,4440v-120h-120h-120v120v120h120
			h120V4440z M4080,3960v-120h-120h-120v-120v-120h-120h-120v-240v-240h-240h-240v-120v-120h-120h-120v240v240h240h240v120v120h120
			h120v120v120h120h120v120v120h120h120V3960z M1680,3240v-120h240h240v-120v-120h-240h-240v-120v-120h-120h-120v120v120h120h120
			v120v120h-120h-120v120v120h120h120V3240z M2640,3000v-120h-120h-120v120v120h120h120V3000z M4560,2760v-120h-120h-120v-120v-120
			h120h120v-120v-120h-240h-240v120v120h-120h-120v120v120h240h240v120v120h120h120V2760z M5040,2760v-120h-120h-120v120v120h120
			h120V2760z M1200,2280v-120h-120H960v120v120h120h120V2280z M4800,1560v-360h-360h-360v360v360h360h360V1560z M5280,1560v-120
			h-120h-120v120v120h120h120V1560z M5280,1080V960h-120h-120v120v120h120h120V1080z M4080,840V720h240h240v120v120h120h120V840V720
			h120h120V600V480h-360h-360V360V240h-120h-120v120v120h-120h-120v240v240h120h120V840z M5760,480V240h-240h-240v120v120h120h120
			v120v120h120h120V480z"/>
		<path class="st0" d="M4320,1560v-120h120h120v120v120h-120h-120V1560z"/>
		<path class="st0" d="M4320,5160v-840h840h840v840v840h-840h-840V5160z M5760,5160v-600h-600h-600v600v600h600h600V5160z"/>
		<path class="st0" d="M4800,5160v-360h360h360v360v360h-360h-360V5160z"/>
		<path class="st0" d="M1920,4560v-240h120h120v240v240h-120h-120V4560z"/>
		<path class="st0" d="M5040,3960v-120h120h120v120v120h-120h-120V3960z"/>
		<path class="st0" d="M0,840V0h840h840v840v840H840H0V840z M1440,840V240H840H240v600v600h600h600V840z"/>
		<path class="st0" d="M480,840V480h360h360v360v360H840H480V840z"/>
		<path class="st0" d="M3360,1560v-120h120h120v120v120h-120h-120V1560z"/>
		<path class="st0" d="M1920,600V0h360h360v120v120h-240h-240v120v120h120h120v120v120h-120h-120v240v240h-120h-120V600z"/>
	</g>
</g>
</svg>
