<?xml version="1.0" encoding="utf-8"?>
<!-- Generator: Adobe Illustrator 27.7.0, SVG Export Plug-In . SVG Version: 6.00 Build 0)  -->
<svg version="1.1" id="layer1" xmlns="http://www.w3.org/2000/svg" xmlns:xlink="http://www.w3.org/1999/xlink" x="0px" y="0px"
	 viewBox="0 0 36 36" style="enable-background:new 0 0 36 36;" xml:space="preserve">
<g>
	<rect width="1.24" height="1.24"/>
	<rect x="1.24" width="1.24" height="1.24"/>
	<rect x="2.48" width="1.24" height="1.24"/>
	<rect x="3.72" width="1.24" height="1.24"/>
	<rect x="4.97" width="1.24" height="1.24"/>
	<rect x="6.21" width="1.24" height="1.24"/>
	<rect x="7.45" width="1.24" height="1.24"/>
	<rect x="11.17" width="1.24" height="1.24"/>
	<rect x="14.9" width="1.24" height="1.24"/>
	<rect x="16.14" width="1.24" height="1.24"/>
	<rect x="17.38" width="1.24" height="1.24"/>
	<rect x="18.62" width="1.24" height="1.24"/>
	<rect x="19.86" width="1.24" height="1.24"/>
	<rect x="21.1" width="1.24" height="1.24"/>
	<rect x="22.34" width="1.24" height="1.24"/>
	<rect x="23.59" width="1.24" height="1.24"/>
	<rect x="27.31" width="1.24" height="1.24"/>
	<rect x="28.55" width="1.24" height="1.24"/>
	<rect x="29.79" width="1.24" height="1.24"/>
	<rect x="31.03" width="1.24" height="1.24"/>
	<rect x="32.28" width="1.24" height="1.24"/>
	<rect x="33.52" width="1.24" height="1.24"/>
	<rect x="34.76" width="1.24" height="1.24"/>
	<rect y="1.24" width="1.24" height="1.24"/>
	<rect x="7.45" y="1.24" width="1.24" height="1.24"/>
	<rect x="12.41" y="1.24" width="1.24" height="1.24"/>
	<rect x="13.66" y="1.24" width="1.24" height="1.24"/>
	<rect x="14.9" y="1.24" width="1.24" height="1.24"/>
	<rect x="17.38" y="1.24" width="1.24" height="1.24"/>
	<rect x="18.62" y="1.24" width="1.24" height="1.24"/>
	<rect x="22.34" y="1.24" width="1.24" height="1.24"/>
	<rect x="23.59" y="1.24" width="1.24" height="1.24"/>
	<rect x="27.31" y="1.24" width="1.24" height="1.24"/>
	<rect x="34.76" y="1.24" width="1.24" height="1.24"/>
	<rect y="2.48" width="1.24" height="1.24"/>
	<rect x="2.48" y="2.48" width="1.24" height="1.24"/>
	<rect x="3.72" y="2.48" width="1.24" height="1.24"/>
	<rect x="4.97" y="2.48" width="1.24" height="1.24"/>
	<rect x="7.45" y="2.48" width="1.24" height="1.24"/>
	<rect x="9.93" y="2.48" width="1.24" height="1.24"/>
	<rect x="11.17" y="2.48" width="1.24" height="1.24"/>
	<rect x="12.41" y="2.48" width="1.24" height="1.24"/>
	<rect x="14.9" y="2.48" width="1.24" height="1.24"/>
	<rect x="17.38" y="2.48" width="1.24" height="1.24"/>
	<rect x="18.62" y="2.48" width="1.24" height="1.24"/>
	<rect x="23.59" y="2.48" width="1.24" height="1.24"/>
	<rect x="27.31" y="2.48" width="1.24" height="1.24"/>
	<rect x="29.79" y="2.48" width="1.24" height="1.24"/>
	<rect x="31.03" y="2.48" width="1.24" height="1.24"/>
	<rect x="32.28" y="2.48" width="1.24" height="1.24"/>
	<rect x="34.76" y="2.48" width="1.24" height="1.24"/>
	<rect y="3.72" width="1.24" height="1.24"/>
	<rect x="2.48" y="3.72" width="1.24" height="1.24"/>
	<rect x="3.72" y="3.72" width="1.24" height="1.24"/>
	<rect x="4.97" y="3.72" width="1.24" height="1.24"/>
	<rect x="7.45" y="3.72" width="1.24" height="1.24"/>
	<rect x="11.17" y="3.72" width="1.24" height="1.24"/>
	<rect x="12.41" y="3.72" width="1.24" height="1.24"/>
	<rect x="13.66" y="3.72" width="1.24" height="1.24"/>
	<rect x="17.38" y="3.72" width="1.24" height="1.24"/>
	<rect x="22.34" y="3.72" width="1.24" height="1.24"/>
	<rect x="27.31" y="3.72" width="1.24" height="1.24"/>
	<rect x="29.79" y="3.72" width="1.24" height="1.24"/>
	<rect x="31.03" y="3.72" width="1.24" height="1.24"/>
	<rect x="32.28" y="3.72" width="1.24" height="1.24"/>
	<rect x="34.76" y="3.72" width="1.24" height="1.24"/>
	<rect y="4.97" width="1.24" height="1.24"/>
	<rect x="2.48" y="4.97" width="1.24" height="1.24"/>
	<rect x="3.72" y="4.97" width="1.24" height="1.24"/>
	<rect x="4.97" y="4.97" width="1.24" height="1.24"/>
	<rect x="7.45" y="4.97" width="1.24" height="1.24"/>
	<rect x="12.41" y="4.97" width="1.24" height="1.24"/>
	<rect x="17.38" y="4.97" width="1.24" height="1.24"/>
	<rect x="18.62" y="4.97" width="1.24" height="1.24"/>
	<rect x="21.1" y="4.97" width="1.24" height="1.24"/>
	<rect x="22.34" y="4.97" width="1.24" height="1.24"/>
	<rect x="23.59" y="4.97" width="1.24" height="1.24"/>
	<rect x="24.83" y="4.97" width="1.24" height="1.24"/>
	<rect x="27.31" y="4.97" width="1.24" height="1.24"/>
	<rect x="29.79" y="4.97" width="1.24" height="1.24"/>
	<rect x="31.03" y="4.97" width="1.24" height="1.24"/>
	<rect x="32.28" y="4.97" width="1.24" height="1.24"/>
	<rect x="34.76" y="4.97" width="1.24" height="1.24"/>
	<rect y="6.21" width="1.24" height="1.24"/>
	<rect x="7.45" y="6.21" width="1.24" height="1.24"/>
	<rect x="11.17" y="6.21" width="1.24" height="1.24"/>
	<rect x="16.14" y="6.21" width="1.24" height="1.24"/>
	<rect x="18.62" y="6.21" width="1.24" height="1.24"/>
	<rect x="19.86" y="6.21" width="1.24" height="1.24"/>
	<rect x="22.34" y="6.21" width="1.24" height="1.24"/>
	<rect x="23.59" y="6.21" width="1.24" height="1.24"/>
	<rect x="27.31" y="6.21" width="1.24" height="1.24"/>
	<rect x="34.76" y="6.21" width="1.24" height="1.24"/>
	<rect y="7.45" width="1.24" height="1.24"/>
	<rect x="1.24" y="7.45" width="1.24" height="1.24"/>
	<rect x="2.48" y="7.45" width="1.24" height="1.24"/>
	<rect x="3.72" y="7.45" width="1.24" height="1.24"/>
	<rect x="4.97" y="7.45" width="1.24" height="1.24"/>
	<rect x="6.21" y="7.45" width="1.24" height="1.24"/>
	<rect x="7.45" y="7.45" width="1.24" height="1.24"/>
	<rect x="9.93" y="7.45" width="1.24" height="1.24"/>
	<rect x="12.41" y="7.45" width="1.24" height="1.24"/>
	<rect x="14.9" y="7.45" width="1.24" height="1.24"/>
	<rect x="17.38" y="7.45" width="1.24" height="1.24"/>
	<rect x="19.86" y="7.45" width="1.24" height="1.24"/>
	<rect x="22.34" y="7.45" width="1.24" height="1.24"/>
	<rect x="24.83" y="7.45" width="1.24" height="1.24"/>
	<rect x="27.31" y="7.45" width="1.24" height="1.24"/>
	<rect x="28.55" y="7.45" width="1.24" height="1.24"/>
	<rect x="29.79" y="7.45" width="1.24" height="1.24"/>
	<rect x="31.03" y="7.45" width="1.24" height="1.24"/>
	<rect x="32.28" y="7.45" width="1.24" height="1.24"/>
	<rect x="33.52" y="7.45" width="1.24" height="1.24"/>
	<rect x="34.76" y="7.45" width="1.24" height="1.24"/>
	<rect x="9.93" y="8.69" width="1.24" height="1.24"/>
	<rect x="11.17" y="8.69" width="1.24" height="1.24"/>
	<rect x="12.41" y="8.69" width="1.24" height="1.24"/>
	<rect x="14.9" y="8.69" width="1.24" height="1.24"/>
	<rect x="16.14" y="8.69" width="1.24" height="1.24"/>
	<rect x="17.38" y="8.69" width="1.24" height="1.24"/>
	<rect x="18.62" y="8.69" width="1.24" height="1.24"/>
	<rect x="21.1" y="8.69" width="1.24" height="1.24"/>
	<rect x="24.83" y="8.69" width="1.24" height="1.24"/>
	<rect y="9.93" width="1.24" height="1.24"/>
	<rect x="1.24" y="9.93" width="1.24" height="1.24"/>
	<rect x="2.48" y="9.93" width="1.24" height="1.24"/>
	<rect x="4.97" y="9.93" width="1.24" height="1.24"/>
	<rect x="6.21" y="9.93" width="1.24" height="1.24"/>
	<rect x="7.45" y="9.93" width="1.24" height="1.24"/>
	<rect x="8.69" y="9.93" width="1.24" height="1.24"/>
	<rect x="9.93" y="9.93" width="1.24" height="1.24"/>
	<rect x="12.41" y="9.93" width="1.24" height="1.24"/>
	<rect x="13.66" y="9.93" width="1.24" height="1.24"/>
	<rect x="16.14" y="9.93" width="1.24" height="1.24"/>
	<rect x="19.86" y="9.93" width="1.24" height="1.24"/>
	<rect x="21.1" y="9.93" width="1.24" height="1.24"/>
	<rect x="24.83" y="9.93" width="1.24" height="1.24"/>
	<rect x="26.07" y="9.93" width="1.24" height="1.24"/>
	<rect x="27.31" y="9.93" width="1.24" height="1.24"/>
	<rect x="32.28" y="9.93" width="1.24" height="1.24"/>
	<rect x="1.24" y="11.17" width="1.24" height="1.24"/>
	<rect x="2.48" y="11.17" width="1.24" height="1.24"/>
	<rect x="4.97" y="11.17" width="1.24" height="1.24"/>
	<rect x="9.93" y="11.17" width="1.24" height="1.24"/>
	<rect x="12.41" y="11.17" width="1.24" height="1.24"/>
	<rect x="13.66" y="11.17" width="1.24" height="1.24"/>
	<rect x="16.14" y="11.17" width="1.24" height="1.24"/>
	<rect x="17.38" y="11.17" width="1.24" height="1.24"/>
	<rect x="19.86" y="11.17" width="1.24" height="1.24"/>
	<rect x="21.1" y="11.17" width="1.24" height="1.24"/>
	<rect x="24.83" y="11.17" width="1.24" height="1.24"/>
	<rect x="26.07" y="11.17" width="1.24" height="1.24"/>
	<rect x="27.31" y="11.17" width="1.24" height="1.24"/>
	<rect x="31.03" y="11.17" width="1.24" height="1.24"/>
	<rect x="34.76" y="11.17" width="1.24" height="1.24"/>
	<rect x="1.24" y="12.41" width="1.24" height="1.24"/>
	<rect x="2.48" y="12.41" width="1.24" height="1.24"/>
	<rect x="6.21" y="12.41" width="1.24" height="1.24"/>
	<rect x="7.45" y="12.41" width="1.24" height="1.24"/>
	<rect x="9.93" y="12.41" width="1.24" height="1.24"/>
	<rect x="11.17" y="12.41" width="1.24" height="1.24"/>
	<rect x="17.38" y="12.41" width="1.24" height="1.24"/>
	<rect x="24.83" y="12.41" width="1.24" height="1.24"/>
	<rect x="26.07" y="12.41" width="1.24" height="1.24"/>
	<rect x="32.28" y="12.41" width="1.24" height="1.24"/>
	<rect x="33.52" y="12.41" width="1.24" height="1.24"/>
	<rect x="34.76" y="12.41" width="1.24" height="1.24"/>
	<rect x="13.66" y="13.66" width="1.24" height="1.24"/>
	<rect x="16.14" y="13.66" width="1.24" height="1.24"/>
	<rect x="18.62" y="13.66" width="1.24" height="1.24"/>
	<rect x="19.86" y="13.66" width="1.24" height="1.24"/>
	<rect x="21.1" y="13.66" width="1.24" height="1.24"/>
	<rect x="23.59" y="13.66" width="1.24" height="1.24"/>
	<rect x="24.83" y="13.66" width="1.24" height="1.24"/>
	<rect x="26.07" y="13.66" width="1.24" height="1.24"/>
	<rect x="27.31" y="13.66" width="1.24" height="1.24"/>
	<rect x="28.55" y="13.66" width="1.24" height="1.24"/>
	<rect x="33.52" y="13.66" width="1.24" height="1.24"/>
	<rect x="4.97" y="14.9" width="1.24" height="1.24"/>
	<rect x="7.45" y="14.9" width="1.24" height="1.24"/>
	<rect x="8.69" y="14.9" width="1.24" height="1.24"/>
	<rect x="14.9" y="14.9" width="1.24" height="1.24"/>
	<rect x="16.14" y="14.9" width="1.24" height="1.24"/>
	<rect x="19.86" y="14.9" width="1.24" height="1.24"/>
	<rect x="21.1" y="14.9" width="1.24" height="1.24"/>
	<rect x="26.07" y="14.9" width="1.24" height="1.24"/>
	<rect x="27.31" y="14.9" width="1.24" height="1.24"/>
	<rect x="28.55" y="14.9" width="1.24" height="1.24"/>
	<rect x="31.03" y="14.9" width="1.24" height="1.24"/>
	<rect x="33.52" y="14.9" width="1.24" height="1.24"/>
	<rect x="34.76" y="14.9" width="1.24" height="1.24"/>
	<rect x="2.48" y="16.14" width="1.24" height="1.24"/>
	<rect x="3.72" y="16.14" width="1.24" height="1.24"/>
	<rect x="9.93" y="16.14" width="1.24" height="1.24"/>
	<rect x="11.17" y="16.14" width="1.24" height="1.24"/>
	<rect x="13.66" y="16.14" width="1.24" height="1.24"/>
	<rect x="14.9" y="16.14" width="1.24" height="1.24"/>
	<rect x="16.14" y="16.14" width="1.24" height="1.24"/>
	<rect x="17.38" y="16.14" width="1.24" height="1.24"/>
	<rect x="19.86" y="16.14" width="1.24" height="1.24"/>
	<rect x="26.07" y="16.14" width="1.24" height="1.24"/>
	<rect x="27.31" y="16.14" width="1.24" height="1.24"/>
	<rect x="31.03" y="16.14" width="1.24" height="1.24"/>
	<rect x="34.76" y="16.14" width="1.24" height="1.24"/>
	<rect x="2.48" y="17.38" width="1.24" height="1.24"/>
	<rect x="6.21" y="17.38" width="1.24" height="1.24"/>
	<rect x="7.45" y="17.38" width="1.24" height="1.24"/>
	<rect x="9.93" y="17.38" width="1.24" height="1.24"/>
	<rect x="11.17" y="17.38" width="1.24" height="1.24"/>
	<rect x="13.66" y="17.38" width="1.24" height="1.24"/>
	<rect x="14.9" y="17.38" width="1.24" height="1.24"/>
	<rect x="17.38" y="17.38" width="1.24" height="1.24"/>
	<rect x="22.34" y="17.38" width="1.24" height="1.24"/>
	<rect x="26.07" y="17.38" width="1.24" height="1.24"/>
	<rect x="27.31" y="17.38" width="1.24" height="1.24"/>
	<rect x="28.55" y="17.38" width="1.24" height="1.24"/>
	<rect x="29.79" y="17.38" width="1.24" height="1.24"/>
	<rect x="31.03" y="17.38" width="1.24" height="1.24"/>
	<rect x="33.52" y="17.38" width="1.24" height="1.24"/>
	<rect x="34.76" y="17.38" width="1.24" height="1.24"/>
	<rect y="18.62" width="1.24" height="1.24"/>
	<rect x="1.24" y="18.62" width="1.24" height="1.24"/>
	<rect x="8.69" y="18.62" width="1.24" height="1.24"/>
	<rect x="11.17" y="18.62" width="1.24" height="1.24"/>
	<rect x="14.9" y="18.62" width="1.24" height="1.24"/>
	<rect x="16.14" y="18.62" width="1.24" height="1.24"/>
	<rect x="21.1" y="18.62" width="1.24" height="1.24"/>
	<rect x="22.34" y="18.62" width="1.24" height="1.24"/>
	<rect x="24.83" y="18.62" width="1.24" height="1.24"/>
	<rect x="31.03" y="18.62" width="1.24" height="1.24"/>
	<rect x="33.52" y="18.62" width="1.24" height="1.24"/>
	<rect y="19.86" width="1.24" height="1.24"/>
	<rect x="1.24" y="19.86" width="1.24" height="1.24"/>
	<rect x="3.72" y="19.86" width="1.24" height="1.24"/>
	<rect x="6.21" y="19.86" width="1.24" height="1.24"/>
	<rect x="7.45" y="19.86" width="1.24" height="1.24"/>
	<rect x="8.69" y="19.86" width="1.24" height="1.24"/>
	<rect x="9.93" y="19.86" width="1.24" height="1.24"/>
	<rect x="12.41" y="19.86" width="1.24" height="1.24"/>
	<rect x="13.66" y="19.86" width="1.24" height="1.24"/>
	<rect x="17.38" y="19.86" width="1.24" height="1.24"/>
	<rect x="19.86" y="19.86" width="1.24" height="1.24"/>
	<rect x="21.1" y="19.86" width="1.24" height="1.24"/>
	<rect x="23.59" y="19.86" width="1.24" height="1.24"/>
	<rect x="24.83" y="19.86" width="1.24" height="1.24"/>
	<rect x="26.07" y="19.86" width="1.24" height="1.24"/>
	<rect x="27.31" y="19.86" width="1.24" height="1.24"/>
	<rect x="28.55" y="19.86" width="1.24" height="1.24"/>
	<rect x="31.03" y="19.86" width="1.24" height="1.24"/>
	<rect x="33.52" y="19.86" width="1.24" height="1.24"/>
	<rect x="34.76" y="19.86" width="1.24" height="1.24"/>
	<rect x="3.72" y="21.1" width="1.24" height="1.24"/>
	<rect x="12.41" y="21.1" width="1.24" height="1.24"/>
	<rect x="13.66" y="21.1" width="1.24" height="1.24"/>
	<rect x="19.86" y="21.1" width="1.24" height="1.24"/>
	<rect x="21.1" y="21.1" width="1.24" height="1.24"/>
	<rect x="24.83" y="21.1" width="1.24" height="1.24"/>
	<rect x="27.31" y="21.1" width="1.24" height="1.24"/>
	<rect x="31.03" y="21.1" width="1.24" height="1.24"/>
	<rect x="32.28" y="21.1" width="1.24" height="1.24"/>
	<rect x="34.76" y="21.1" width="1.24" height="1.24"/>
	<rect y="22.34" width="1.24" height="1.24"/>
	<rect x="2.48" y="22.34" width="1.24" height="1.24"/>
	<rect x="6.21" y="22.34" width="1.24" height="1.24"/>
	<rect x="7.45" y="22.34" width="1.24" height="1.24"/>
	<rect x="8.69" y="22.34" width="1.24" height="1.24"/>
	<rect x="16.14" y="22.34" width="1.24" height="1.24"/>
	<rect x="21.1" y="22.34" width="1.24" height="1.24"/>
	<rect x="24.83" y="22.34" width="1.24" height="1.24"/>
	<rect x="28.55" y="22.34" width="1.24" height="1.24"/>
	<rect x="33.52" y="22.34" width="1.24" height="1.24"/>
	<rect x="34.76" y="22.34" width="1.24" height="1.24"/>
	<rect x="1.24" y="23.59" width="1.24" height="1.24"/>
	<rect x="3.72" y="23.59" width="1.24" height="1.24"/>
	<rect x="4.97" y="23.59" width="1.24" height="1.24"/>
	<rect x="9.93" y="23.59" width="1.24" height="1.24"/>
	<rect x="12.41" y="23.59" width="1.24" height="1.24"/>
	<rect x="13.66" y="23.59" width="1.24" height="1.24"/>
	<rect x="19.86" y="23.59" width="1.24" height="1.24"/>
	<rect x="21.1" y="23.59" width="1.24" height="1.24"/>
	<rect x="22.34" y="23.59" width="1.24" height="1.24"/>
	<rect x="23.59" y="23.59" width="1.24" height="1.24"/>
	<rect x="29.79" y="23.59" width="1.24" height="1.24"/>
	<rect x="31.03" y="23.59" width="1.24" height="1.24"/>
	<rect x="33.52" y="23.59" width="1.24" height="1.24"/>
	<rect y="24.83" width="1.24" height="1.24"/>
	<rect x="2.48" y="24.83" width="1.24" height="1.24"/>
	<rect x="3.72" y="24.83" width="1.24" height="1.24"/>
	<rect x="6.21" y="24.83" width="1.24" height="1.24"/>
	<rect x="7.45" y="24.83" width="1.24" height="1.24"/>
	<rect x="9.93" y="24.83" width="1.24" height="1.24"/>
	<rect x="11.17" y="24.83" width="1.24" height="1.24"/>
	<rect x="14.9" y="24.83" width="1.24" height="1.24"/>
	<rect x="18.62" y="24.83" width="1.24" height="1.24"/>
	<rect x="19.86" y="24.83" width="1.24" height="1.24"/>
	<rect x="21.1" y="24.83" width="1.24" height="1.24"/>
	<rect x="23.59" y="24.83" width="1.24" height="1.24"/>
	<rect x="24.83" y="24.83" width="1.24" height="1.24"/>
	<rect x="26.07" y="24.83" width="1.24" height="1.24"/>
	<rect x="27.31" y="24.83" width="1.24" height="1.24"/>
	<rect x="28.55" y="24.83" width="1.24" height="1.24"/>
	<rect x="29.79" y="24.83" width="1.24" height="1.24"/>
	<rect x="9.93" y="26.07" width="1.24" height="1.24"/>
	<rect x="13.66" y="26.07" width="1.24" height="1.24"/>
	<rect x="14.9" y="26.07" width="1.24" height="1.24"/>
	<rect x="16.14" y="26.07" width="1.24" height="1.24"/>
	<rect x="19.86" y="26.07" width="1.24" height="1.24"/>
	<rect x="24.83" y="26.07" width="1.24" height="1.24"/>
	<rect x="29.79" y="26.07" width="1.24" height="1.24"/>
	<rect x="32.28" y="26.07" width="1.24" height="1.24"/>
	<rect x="33.52" y="26.07" width="1.24" height="1.24"/>
	<rect x="34.76" y="26.07" width="1.24" height="1.24"/>
	<rect y="27.31" width="1.24" height="1.24"/>
	<rect x="1.24" y="27.31" width="1.24" height="1.24"/>
	<rect x="2.48" y="27.31" width="1.24" height="1.24"/>
	<rect x="3.72" y="27.31" width="1.24" height="1.24"/>
	<rect x="4.97" y="27.31" width="1.24" height="1.24"/>
	<rect x="6.21" y="27.31" width="1.24" height="1.24"/>
	<rect x="7.45" y="27.31" width="1.24" height="1.24"/>
	<rect x="9.93" y="27.31" width="1.24" height="1.24"/>
	<rect x="11.17" y="27.31" width="1.24" height="1.24"/>
	<rect x="13.66" y="27.31" width="1.24" height="1.24"/>
	<rect x="14.9" y="27.31" width="1.24" height="1.24"/>
	<rect x="17.38" y="27.31" width="1.24" height="1.24"/>
	<rect x="19.86" y="27.31" width="1.24" height="1.24"/>
	<rect x="22.34" y="27.31" width="1.24" height="1.24"/>
	<rect x="23.59" y="27.31" width="1.24" height="1.24"/>
	<rect x="24.83" y="27.31" width="1.24" height="1.24"/>
	<rect x="27.31" y="27.31" width="1.24" height="1.24"/>
	<rect x="29.79" y="27.31" width="1.24" height="1.24"/>
	<rect x="31.03" y="27.31" width="1.24" height="1.24"/>
	<rect x="33.52" y="27.31" width="1.24" height="1.24"/>
	<rect x="34.76" y="27.31" width="1.24" height="1.24"/>
	<rect y="28.55" width="1.24" height="1.24"/>
	<rect x="7.45" y="28.55" width="1.24" height="1.24"/>
	<rect x="9.93" y="28.55" width="1.24" height="1.24"/>
	<rect x="14.9" y="28.55" width="1.24" height="1.24"/>
	<rect x="16.14" y="28.55" width="1.24" height="1.24"/>
	<rect x="17.38" y="28.55" width="1.24" height="1.24"/>
	<rect x="18.62" y="28.55" width="1.24" height="1.24"/>
	<rect x="19.86" y="28.55" width="1.24" height="1.24"/>
	<rect x="21.1" y="28.55" width="1.24" height="1.24"/>
	<rect x="22.34" y="28.55" width="1.24" height="1.24"/>
	<rect x="24.83" y="28.55" width="1.24" height="1.24"/>
	<rect x="29.79" y="28.55" width="1.24" height="1.24"/>
	<rect x="31.03" y="28.55" width="1.24" height="1.24"/>
	<rect x="33.52" y="28.55" width="1.24" height="1.24"/>
	<rect y="29.79" width="1.24" height="1.24"/>
	<rect x="2.48" y="29.79" width="1.24" height="1.24"/>
	<rect x="3.72" y="29.79" width="1.24" height="1.24"/>
	<rect x="4.97" y="29.79" width="1.24" height="1.24"/>
	<rect x="7.45" y="29.79" width="1.24" height="1.24"/>
	<rect x="9.93" y="29.79" width="1.24" height="1.24"/>
	<rect x="13.66" y="29.79" width="1.24" height="1.24"/>
	<rect x="17.38" y="29.79" width="1.24" height="1.24"/>
	<rect x="18.62" y="29.79" width="1.24" height="1.24"/>
	<rect x="19.86" y="29.79" width="1.24" height="1.24"/>
	<rect x="21.1" y="29.79" width="1.24" height="1.24"/>
	<rect x="24.83" y="29.79" width="1.24" height="1.24"/>
	<rect x="26.07" y="29.79" width="1.24" height="1.24"/>
	<rect x="27.31" y="29.79" width="1.24" height="1.24"/>
	<rect x="28.55" y="29.79" width="1.24" height="1.24"/>
	<rect x="29.79" y="29.79" width="1.24" height="1.24"/>
	<rect y="31.03" width="1.24" height="1.24"/>
	<rect x="2.48" y="31.03" width="1.24" height="1.24"/>
	<rect x="3.72" y="31.03" width="1.24" height="1.24"/>
	<rect x="4.97" y="31.03" width="1.24" height="1.24"/>
	<rect x="7.45" y="31.03" width="1.24" height="1.24"/>
	<rect x="12.41" y="31.03" width="1.24" height="1.24"/>
	<rect x="13.66" y="31.03" width="1.24" height="1.24"/>
	<rect x="17.38" y="31.03" width="1.24" height="1.24"/>
	<rect x="19.86" y="31.03" width="1.24" height="1.24"/>
	<rect x="21.1" y="31.03" width="1.24" height="1.24"/>
	<rect x="22.34" y="31.03" width="1.24" height="1.24"/>
	<rect x="26.07" y="31.03" width="1.24" height="1.24"/>
	<rect x="28.55" y="31.03" width="1.24" height="1.24"/>
	<rect x="29.79" y="31.03" width="1.24" height="1.24"/>
	<rect x="32.28" y="31.03" width="1.24" height="1.24"/>
	<rect x="33.52" y="31.03" width="1.24" height="1.24"/>
	<rect x="34.76" y="31.03" width="1.24" height="1.24"/>
	<rect y="32.28" width="1.24" height="1.24"/>
	<rect x="2.48" y="32.28" width="1.24" height="1.24"/>
	<rect x="3.72" y="32.28" width="1.24" height="1.24"/>
	<rect x="4.97" y="32.28" width="1.24" height="1.24"/>
	<rect x="7.45" y="32.28" width="1.24" height="1.24"/>
	<rect x="9.93" y="32.28" width="1.24" height="1.24"/>
	<rect x="16.14" y="32.28" width="1.24" height="1.24"/>
	<rect x="24.83" y="32.28" width="1.24" height="1.24"/>
	<rect x="28.55" y="32.28" width="1.24" height="1.24"/>
	<rect x="29.79" y="32.28" width="1.24" height="1.24"/>
	<rect x="31.03" y="32.28" width="1.24" height="1.24"/>
	<rect x="34.76" y="32.28" width="1.24" height="1.24"/>
	<rect y="33.52" width="1.24" height="1.24"/>
	<rect x="7.45" y="33.52" width="1.24" height="1.24"/>
	<rect x="9.93" y="33.52" width="1.24" height="1.24"/>
	<rect x="11.17" y="33.52" width="1.24" height="1.24"/>
	<rect x="13.66" y="33.52" width="1.24" height="1.24"/>
	<rect x="18.62" y="33.52" width="1.24" height="1.24"/>
	<rect x="21.1" y="33.52" width="1.24" height="1.24"/>
	<rect x="24.83" y="33.52" width="1.24" height="1.24"/>
	<rect x="27.31" y="33.52" width="1.24" height="1.24"/>
	<rect x="28.55" y="33.52" width="1.24" height="1.24"/>
	<rect x="29.79" y="33.52" width="1.24" height="1.24"/>
	<rect x="33.52" y="33.52" width="1.24" height="1.24"/>
	<rect y="34.76" width="1.24" height="1.24"/>
	<rect x="1.24" y="34.76" width="1.24" height="1.24"/>
	<rect x="2.48" y="34.76" width="1.24" height="1.24"/>
	<rect x="3.72" y="34.76" width="1.24" height="1.24"/>
	<rect x="4.97" y="34.76" width="1.24" height="1.24"/>
	<rect x="6.21" y="34.76" width="1.24" height="1.24"/>
	<rect x="7.45" y="34.76" width="1.24" height="1.24"/>
	<rect x="9.93" y="34.76" width="1.24" height="1.24"/>
	<rect x="12.41" y="34.76" width="1.24" height="1.24"/>
	<rect x="14.9" y="34.76" width="1.24" height="1.24"/>
	<rect x="19.86" y="34.76" width="1.24" height="1.24"/>
	<rect x="21.1" y="34.76" width="1.24" height="1.24"/>
	<rect x="23.59" y="34.76" width="1.24" height="1.24"/>
	<rect x="24.83" y="34.76" width="1.24" height="1.24"/>
	<rect x="26.07" y="34.76" width="1.24" height="1.24"/>
	<rect x="27.31" y="34.76" width="1.24" height="1.24"/>
	<rect x="33.52" y="34.76" width="1.24" height="1.24"/>
	<rect x="34.76" y="34.76" width="1.24" height="1.24"/>
</g>
</svg>
